<svg xmlns="http://www.w3.org/2000/svg" xmlns:xlink="http://www.w3.org/1999/xlink" id="svg" version="1.1" width="320" height="96"  viewBox="80 36.03499984741211 223.75 61.679996490478516">
  <rect id="svgEditorBackground" x="80" y="36.03499984741211" width="223.75" height="61.679996490478516" style="fill:none;stroke:none;"/>
  <g id="svgg">
    <path id="path0" d="M80.000 44.857 L 80.000 53.679 96.879 54.027 C 114.716 54.395,120.895 56.589,105.938 57.245 L 97.500 57.614 97.500 66.250 L 97.500 74.886 105.938 75.255 C 112.440 75.540,114.375 76.055,114.375 77.500 C 114.375 79.059,111.477 79.434,97.188 79.723 L 80.000 80.071 80.000 88.893 L 80.000 97.715 100.537 97.295 C 118.955 96.918,121.437 96.608,124.599 94.286 C 131.795 89.003,134.611 77.709,130.646 70.040 C 129.010 66.877,129.009 66.039,130.638 62.915 C 134.730 55.070,131.751 44.096,124.181 39.130 C 121.302 37.242,117.431 36.807,100.372 36.455 L 80.000 36.035 80.000 44.857 M131.558 37.813 C 131.874 38.672,136.795 52.453,142.493 68.438 L 152.854 97.500 161.742 97.500 L 170.631 97.500 175.820 82.813 C 178.675 74.734,183.580 60.929,186.721 52.133 L 192.432 36.142 183.527 36.508 L 174.622 36.875 168.375 53.501 C 164.938 62.645,161.733 69.676,161.252 69.126 C 160.771 68.575,158.941 64.188,157.185 59.375 C 155.429 54.563,152.772 47.391,151.281 43.438 L 148.570 36.250 139.776 36.250 C 133.268 36.250,131.132 36.656,131.558 37.813 M197.726 57.813 C 198.416 89.238,203.860 97.328,224.375 97.418 C 243.635 97.502,249.981 87.072,249.993 55.313 L 250.000 36.250 241.338 36.250 L 232.676 36.250 232.275 55.498 C 231.833 76.748,230.702 80.000,223.750 80.000 C 216.798 80.000,215.667 76.748,215.225 55.498 L 214.824 36.250 206.038 36.250 L 197.253 36.250 197.726 57.813 M255.000 66.875 L 255.000 97.500 279.375 97.500 L 303.750 97.500 303.750 88.750 L 303.750 80.000 288.125 80.000 C 273.333 80.000,272.500 79.867,272.500 77.500 C 272.500 75.303,273.333 75.000,279.375 75.000 L 286.250 75.000 286.250 66.250 L 286.250 57.500 279.375 57.500 C 274.097 57.500,272.500 57.064,272.500 55.625 C 272.500 54.058,275.069 53.750,288.125 53.750 L 303.750 53.750 303.750 45.000 L 303.750 36.250 279.375 36.250 L 255.000 36.250 255.000 66.875 " stroke="none" fill="#000000" fill-rule="evenodd"/>
  </g>
</svg>
